<svg id="Layer_1-2" xmlns="http://www.w3.org/2000/svg" width="398.206" height="71.85" viewBox="0 0 398.206 71.85">
  <g id="Group_3" data-name="Group 3">
    <g id="Layer_1-3">
      <path id="Path_5739" d="M136.79,9.28H109.73a1.6,1.6,0,0,0,0,3.18h11.92V62.9a1.567,1.567,0,0,0,.78,1.46,1.617,1.617,0,0,0,2.45-1.46V12.46H136.8a1.619,1.619,0,0,0,1.48-.77,1.58,1.58,0,0,0,0-1.65,1.629,1.629,0,0,0-1.48-.77h0Z" fill="#154e7b"/>
      <path id="Path_5740" d="M173.56,62.63a1.594,1.594,0,0,0-1.62-1.59h0l-26.83.04,11.97-20.97h9.01a1.619,1.619,0,0,0,1.48-.77,1.58,1.58,0,0,0,0-1.65,1.629,1.629,0,0,0-1.48-.77h-7.21l14.45-25.33a1.584,1.584,0,0,0-1.41-2.37h-29.6a1.619,1.619,0,0,0-1.48.77,1.58,1.58,0,0,0,0,1.65,1.629,1.629,0,0,0,1.48.77h26.83L155.16,36.92h-7.02a1.619,1.619,0,0,0-1.48.77,1.58,1.58,0,0,0,0,1.65,1.629,1.629,0,0,0,1.48.77h5.17L140.88,61.89a1.61,1.61,0,0,0,0,1.59,1.632,1.632,0,0,0,1.4.79l29.6-.05a1.622,1.622,0,0,0,1.17-.45,1.646,1.646,0,0,0,.5-1.15Z" fill="#154e7b"/>
      <path id="Path_5741" d="M182.45,61.1a1.619,1.619,0,0,0-1.48.77,1.58,1.58,0,0,0,0,1.65,1.629,1.629,0,0,0,1.48.77h11.43a1.619,1.619,0,0,0,1.48-.77,1.58,1.58,0,0,0,0-1.65,1.629,1.629,0,0,0-1.48-.77h-4.09V12.53h4.09a1.619,1.619,0,0,0,1.48-.77,1.58,1.58,0,0,0,0-1.65,1.629,1.629,0,0,0-1.48-.77H182.45a1.619,1.619,0,0,0-1.48.77,1.58,1.58,0,0,0,0,1.65,1.629,1.629,0,0,0,1.48.77h4.09V61.1h-4.09Z" fill="#154e7b"/>
      <path id="Path_5742" d="M204.42,64.35H233.6a1.619,1.619,0,0,0,1.48-.77,1.58,1.58,0,0,0,0-1.65,1.629,1.629,0,0,0-1.48-.77H206.03V10.86a1.615,1.615,0,0,0-3.23,0v51.9a1.6,1.6,0,0,0,1.61,1.6h0Z" fill="#154e7b"/>
      <path id="Path_5743" d="M292.83,62.08,266.62,10.25a1.591,1.591,0,0,0-1.44-.87h0a1.61,1.61,0,0,0-1.44.87l-26.2,51.83a1.6,1.6,0,0,0,.72,2.15h0c.12.06.22.1,1.82.13l25.1-49.83L290.42,64.4h.98a1.856,1.856,0,0,0,.73-.17,1.584,1.584,0,0,0,.73-2.12v-.02h0Z" fill="#154e7b"/>
      <path id="Path_5744" d="M265.18,58.37a2.92,2.92,0,1,0,2.92,2.92,2.923,2.923,0,0,0-2.92-2.92h0Z" fill="#154e7b"/>
      <path id="Path_5746" d="M32.99,18.45,45.16,0,57.33,18.45Z" fill="#bb9d66"/>
      <path id="Path_5747" d="M0,66,12.17,47.54,24.34,66Z" fill="#bb9d66"/>
      <path id="Path_5748" d="M32.99,66,45.16,47.54,57.33,66Z" fill="#bb9d66"/>
      <path id="Path_5749" d="M65.93,66,78.1,47.54,90.27,66H65.93Z" fill="#bb9d66"/>
      <path id="Path_5750" d="M74.28,30.42,62.11,48.88,49.94,30.42H74.28Z" fill="#bb9d66"/>
      <path id="Path_5751" d="M40.35,30.42,28.18,48.88,16.01,30.42H40.35Z" fill="#bb9d66"/>
    </g>
    <path id="Path_3" data-name="Path 3" d="M36.321-2.339a.662.662,0,0,1,.207.049,1.1,1.1,0,0,1,.256.134.591.591,0,0,1,.183.195.159.159,0,0,1-.037.207,2.837,2.837,0,0,1-.9.755,4.534,4.534,0,0,1-1.1.4,6.494,6.494,0,0,1-1.194.158,9.7,9.7,0,0,1-1.194-.024A11.19,11.19,0,0,1,30.012-.9,20.3,20.3,0,0,1,27.6-1.778q-1.1-.512-2.168-1.06T23.3-3.959q-1.06-.572-2.132-1.121T19-6.114q-1.267-.512-2.546-.962A18.905,18.905,0,0,0,13.812-7.8q-.706.512-1.437.938a4.313,4.313,0,0,1-1.559.548,3.269,3.269,0,0,1-1.047-.024A4.432,4.432,0,0,1,8.7-6.662a2.729,2.729,0,0,1-.877-.621,1.808,1.808,0,0,1-.463-.95.778.778,0,0,1,.073-.524.8.8,0,0,1,.341-.317,1.806,1.806,0,0,1,.487-.158,2.862,2.862,0,0,1,.512-.049q.609-.073,1.218-.085t1.242.012q.463.049.9.11t.9.134q.609-.438,1.181-.889l1.157-.913a35.833,35.833,0,0,0,3.313-3.252q1.535-1.717,3.142-3.4a.3.3,0,0,1,.3-.158,1.007,1.007,0,0,1,.414.122.79.79,0,0,1,.317.292.328.328,0,0,1,.012.353q-.853,1.169-1.8,2.265T19.1-12.521q-.974,1.023-2,1.985T14.981-8.7l1.705.512A35.157,35.157,0,0,1,21.62-6.114Q23.995-4.9,26.358-3.7q1.169.609,2.363,1.108a11.387,11.387,0,0,0,2.46.719,8.26,8.26,0,0,0,2.57-.012Q35.005-2.095,36.321-2.339ZM9.744-7.5a2.265,2.265,0,0,0,.877-.183,4.54,4.54,0,0,0,.828-.451q-.487,0-.987.012t-.987.061a1.54,1.54,0,0,1-.219.037.568.568,0,0,0-.195.049.117.117,0,0,0-.073.11q0,.073.146.195a.515.515,0,0,0,.292.11A1.289,1.289,0,0,1,9.744-7.5Zm39.049-4.19a1.561,1.561,0,0,1,.353.292.362.362,0,0,1,.11.39.892.892,0,0,1-.073.158.326.326,0,0,1-.171.134,2.3,2.3,0,0,1-1,.024q-.512-.1-1-.146-.536-.049-1.047-.085t-1-.037q-1-.049-1.973-.012t-1.973.134Q40-10.718,39-10.572t-2.022.365L36-9.963q-.487.122-.974.268l-.828.244a2.923,2.923,0,0,1-.828.122A6.542,6.542,0,0,1,31.765-7.6,8.114,8.114,0,0,1,29.67-6.48a3.462,3.462,0,0,1-1.145.195A1.618,1.618,0,0,1,27.454-6.7a1.282,1.282,0,0,1-.426-.512,1.028,1.028,0,0,1-.073-.536,1.676,1.676,0,0,1,.183-.548,2.532,2.532,0,0,1,.365-.524,9.568,9.568,0,0,1,1.839-1.669,5.419,5.419,0,0,1,2.278-.938.446.446,0,0,1-.134-.292.434.434,0,0,1,.11-.317.95.95,0,0,1,.548-.3,1.449,1.449,0,0,1,.67.037,2.074,2.074,0,0,1,.633.3,1.529,1.529,0,0,1,.438.451.956.956,0,0,1,.146.378,1.469,1.469,0,0,1,0,.378.8.8,0,0,0,.195-.049,18.48,18.48,0,0,1,1.973-.536,40.627,40.627,0,0,1,4.141-.658q1.072-.1,2.119-.134t2.119.012q.536,0,1.06.037t1.035.085l1.072.1a.652.652,0,0,0,.244.049,1.239,1.239,0,0,1,.244.024.427.427,0,0,0,.134.024.151.151,0,0,1,.11.049A.56.56,0,0,1,48.793-11.693Zm-20,4.068a5.987,5.987,0,0,0,1.389-.731A7.358,7.358,0,0,0,31.376-9.4a6.416,6.416,0,0,0,.9-1.291q-.658.414-1.34.792a6.089,6.089,0,0,0-1.267.938,8.07,8.07,0,0,0-.609.572,4.251,4.251,0,0,0-.512.646l-.073.195a.561.561,0,0,1,.195-.049A.271.271,0,0,0,28.794-7.625ZM67.5-10.791a.323.323,0,0,1-.146.378.674.674,0,0,1-.414.085,13.808,13.808,0,0,0-2.607.146,19.745,19.745,0,0,0-2.521.56,26.594,26.594,0,0,0-2.521.877q-1.267.512-2.582,1.072-.56.292-1.218.585a3.544,3.544,0,0,1-1.315.317,1.872,1.872,0,0,1-1.194-.317,1.345,1.345,0,0,1-.633-1.023.981.981,0,0,1-.024-.268l-.292.195q-.658.365-1.34.706a12.727,12.727,0,0,1-1.437.609,4.575,4.575,0,0,1-1.389.268,2.041,2.041,0,0,1-1.34-.463,1.449,1.449,0,0,1-.719-1.108,1.97,1.97,0,0,1,.365-1.157,4.657,4.657,0,0,1,.974-1.035,7.9,7.9,0,0,1,1.084-.743,5.631,5.631,0,0,1,1.242-.536,2.386,2.386,0,0,1,1.389.024,2.534,2.534,0,0,1,.95.548,1.273,1.273,0,0,1,.414.987q.268-.171.536-.317a4.911,4.911,0,0,0,.536-.341,15.52,15.52,0,0,1,3.374-3.837,18.455,18.455,0,0,1,4.373-2.667.678.678,0,0,1,.426-.012,1.628,1.628,0,0,1,.475.195.881.881,0,0,1,.329.341.465.465,0,0,1,.012.426,6.178,6.178,0,0,1-.95,1.328,13.616,13.616,0,0,1-1.169,1.108q-.706.585-1.413,1.133t-1.437,1.084q-.658.487-1.328.962t-1.352.913A5.621,5.621,0,0,0,54.055-8.6a1.325,1.325,0,0,0-.073.256,1.325,1.325,0,0,1-.073.256v.049l.633-.268a9.428,9.428,0,0,0,1.169-.512q1.145-.512,2.509-1.1a26.937,26.937,0,0,1,2.814-1.023,17.643,17.643,0,0,1,2.887-.621,7.814,7.814,0,0,1,2.728.11,2.185,2.185,0,0,1,.536.231A.614.614,0,0,1,67.5-10.791ZM49.061-8.331a14.109,14.109,0,0,0,1.315-.646q.633-.353,1.267-.743a1.6,1.6,0,0,0,.244-.146.553.553,0,0,1-.39-.268.822.822,0,0,0-.438-.438,1.128,1.128,0,0,0-.572-.049,2.3,2.3,0,0,0-.6.183,5.479,5.479,0,0,0-.536.28,10.8,10.8,0,0,0-1.084.755,2.689,2.689,0,0,0-.792,1,1.646,1.646,0,0,0-.134.292.475.475,0,0,0-.012.317h.024a.888.888,0,0,0,.146-.012,1.049,1.049,0,0,1,.171-.012q.341-.1.694-.231T49.061-8.331ZM83.75-11.376a.348.348,0,0,1-.146.4.619.619,0,0,1-.438.061,17.442,17.442,0,0,0-7.113.95,21.044,21.044,0,0,0-4.3,2.022,46.59,46.59,0,0,0-3.91,2.7A136.388,136.388,0,0,1,57.758,5.871a.489.489,0,0,1-.414.146,1.006,1.006,0,0,1-.463-.171,1.124,1.124,0,0,1-.353-.378.614.614,0,0,1-.085-.451,10.655,10.655,0,0,1,1.449-3A19.791,19.791,0,0,1,60.023-.56q1.169-1.145,2.363-2.192t2.436-2.071l1.73-1.413q.8-.974,1.608-2.046-.244.1-.475.195t-.5.195q-.853.341-1.754.646a3.413,3.413,0,0,1-1.827.11,1.87,1.87,0,0,1-.341-.1,1.189,1.189,0,0,1-.353-.207.856.856,0,0,1-.231-.292.359.359,0,0,1,.049-.353,6.459,6.459,0,0,1,1.425-1.778,6.551,6.551,0,0,1,1.912-1.169,7.691,7.691,0,0,1,2.18-.512,6.617,6.617,0,0,1,2.253.195,1.029,1.029,0,0,1,.451.256.583.583,0,0,1,.231.426q.049.365-.341.414a1.289,1.289,0,0,1,.353.341.307.307,0,0,1-.012.39,1.591,1.591,0,0,1-.146.171.65.65,0,0,0-.122.171A30.76,30.76,0,0,1,73.7-10.572,19.47,19.47,0,0,1,76.673-11.6a18.946,18.946,0,0,1,3.082-.524,13.822,13.822,0,0,1,3.118.085,1.615,1.615,0,0,1,.548.219A.645.645,0,0,1,83.75-11.376ZM66.576-9.184q.78-.268,1.547-.572t1.547-.621a6.044,6.044,0,0,0-2.473.426A6.116,6.116,0,0,0,65.09-8.575a4.712,4.712,0,0,0,.78-.3A6.393,6.393,0,0,1,66.576-9.184Zm33.081-1.778a1.119,1.119,0,0,1,.4.207.486.486,0,0,1,.207.4.265.265,0,0,1-.158.28.977.977,0,0,1-.353.061l-1.072-.1a7.876,7.876,0,0,0-1.072-.024,15.516,15.516,0,0,0-2.046.292,15.068,15.068,0,0,0-2.022.585q-1,.365-2,.78-.877.341-1.754.658t-1.8.585q-.78.219-1.583.378a4.157,4.157,0,0,1-1.583.012,3.372,3.372,0,0,1-1.437-.585,2.325,2.325,0,0,1-.9-1.242,2.479,2.479,0,0,1,0-1.376,2.653,2.653,0,0,1,.682-1.181,3.374,3.374,0,0,1,1.3-.816,9.143,9.143,0,0,1,1.474-.378,6.177,6.177,0,0,1,.913-.073,1.641,1.641,0,0,1,.84.244,1.467,1.467,0,0,1,.524.475.978.978,0,0,1,.158.694.942.942,0,0,1-.317.621,2.024,2.024,0,0,1-.633.365,3.935,3.935,0,0,1-.767.195,4.85,4.85,0,0,1-.719.061,2.049,2.049,0,0,1-.67-.012,5.331,5.331,0,0,1-.962-.207,1.691,1.691,0,0,0-.341.78,1.255,1.255,0,0,0,.012.792.725.725,0,0,0,.572.475,2.81,2.81,0,0,0,1.133-.037q.572-.134,1.108-.256.658-.195,1.3-.4t1.279-.451l2.46-.962a19.57,19.57,0,0,1,2.533-.792q.609-.146,1.291-.268a11.145,11.145,0,0,1,1.364-.158,7.506,7.506,0,0,1,1.352.049A5.2,5.2,0,0,1,99.657-10.962Zm-13.179-.244q-.244.049-.5.122a5.161,5.161,0,0,0-.5.171.17.17,0,0,0,.073-.012.17.17,0,0,1,.073-.012q.195-.024.487-.085a1.489,1.489,0,0,0,.487-.183Z" transform="translate(297.94 65.83)" fill="#154d7a"/>
  </g>
</svg>
